<?xml version="1.0" encoding="utf-8"?>
<!-- Generator: Adobe Illustrator 17.0.0, SVG Export Plug-In . SVG Version: 6.00 Build 0)  -->
<!DOCTYPE svg PUBLIC "-//W3C//DTD SVG 1.1//EN" "http://www.w3.org/Graphics/SVG/1.1/DTD/svg11.dtd">
<svg version="1.1" id="Layer_1" xmlns="http://www.w3.org/2000/svg" xmlns:xlink="http://www.w3.org/1999/xlink" x="0px" y="0px"
	 width="164.651px" height="186.09px" viewBox="0 0 164.651 186.09" enable-background="new 0 0 164.651 186.09"
	 xml:space="preserve">
<g>
	<ellipse fill="#B7A99F" cx="77.983" cy="183.533" rx="77.983" ry="2.557"/>
	<g>
		<path d="M105.888,174.236c0,0,15.758-68.247,29.949-69.816c14.192-1.57,11.223,51.613,11.223,51.613
			S127.573,177.899,105.888,174.236z"/>
		<ellipse fill="#EABB98" cx="135.409" cy="48.462" rx="25.619" ry="20.9"/>
		<path fill="#663300" d="M158.688,36.818c10.937-10.051,6.209-23.657-9.122-26.11c-12.091-1.935-14.814,8.967-15.388,15.284
			c-4.543,0.654-9.723,2.386-15.625,5.615c0,0,9.439,28.991,26.293,35.732c0,0,20.9-3.372,18.877-20.226
			C163.724,47.114,162.354,42.033,158.688,36.818z"/>
		<path fill="#EABB98" d="M125.97,80.824c0,0-1.348-12.136,9.439-11.461c10.787,0.674,10.112,16.854,10.112,16.854L125.97,80.824z"
			/>
		<polygon fill="#39B54A" points="125.261,75.767 128.747,101.726 143.45,101.613 146.414,81.835 		"/>
		<polygon fill="#EABB98" points="135.408,74.756 87.633,101.726 142.151,78.801 		"/>
		<ellipse fill="#EABB98" cx="132.712" cy="54.193" rx="5.394" ry="7.079"/>
	</g>
	<path fill="#C7B299" d="M25.393,124.275h31.732c0,0,3.378-74.436-14.832-73.958C16.674,50.991,25.393,124.275,25.393,124.275z"/>
	<polygon fill="#C7B299" points="33.529,61.104 87.633,101.726 36.562,92.25 	"/>
	<g>
		
			<ellipse transform="matrix(-0.9889 -0.1484 0.1484 -0.9889 78.9908 64.8913)" fill="#EABB98" cx="41.916" cy="29.499" rx="25.617" ry="20.898"/>
		<circle fill="#EABB98" cx="43.759" cy="33.19" r="7.079"/>
	</g>
	<path fill="#1B1464" d="M29.427,121.275c0,0,6.821,33.372,10.192,61.014l21.574-0.674l-11.461-6.405l6.382-53.935H29.427z"/>
</g>
</svg>
