<?xml version="1.0" encoding="utf-8"?>
<!-- Generator: Adobe Illustrator 17.0.0, SVG Export Plug-In . SVG Version: 6.00 Build 0)  -->
<!DOCTYPE svg PUBLIC "-//W3C//DTD SVG 1.1//EN" "http://www.w3.org/Graphics/SVG/1.1/DTD/svg11.dtd">
<svg version="1.1" id="Layer_1" xmlns="http://www.w3.org/2000/svg" xmlns:xlink="http://www.w3.org/1999/xlink" x="0px" y="0px"
	 width="172.845px" height="186.09px" viewBox="44.839 -6.829 172.845 186.09"
	 enable-background="new 44.839 -6.829 172.845 186.09" xml:space="preserve">
<g>
	<g>
		<path fill="#F9F8F7" d="M122.404,86.818c-1.396-1.535-0.698-4.745,3.07-12.001c3.768-7.256,1.535-17.584,0.977-18.839
			c-0.47-1.059-5.007-1.423-6.42-1.512v-0.023c0,0-0.077,0.004-0.209,0.011c-0.132-0.007-0.209-0.011-0.209-0.011v0.023
			c-1.413,0.089-5.95,0.453-6.42,1.512c-0.558,1.256-2.791,11.583,0.977,18.839c3.768,7.256,4.465,10.466,3.07,12.001
			c-1.396,1.535-6.608,4.327-1.21,4.327h3.583h0.418h3.583C129.012,91.145,123.799,88.354,122.404,86.818z"/>
		<path fill="#E4B322" d="M116.029,91.145h3.583h0.418h3.583c5.397,0,0.185-2.791-1.21-4.327c-1.314-1.445-0.772-4.375,2.438-10.765
			l-10.61-1.115c3.712,7.17,4.395,10.353,3.007,11.88C115.844,88.354,110.632,91.145,116.029,91.145z"/>
		<path fill="#F0C219" d="M124.543,76.661c0.29-0.587,0.594-1.194,0.931-1.844c2.008-3.867,2.376-6.252,2.137-10.025
			c-2.336,0.197-5.076,2.083-7.79,1.264c-2.424-0.732-5.811-2.275-7.793-1.536c-0.279,3.826,0.072,6.312,2.141,10.297
			c0.293,0.564,0.561,1.096,0.818,1.613c0,0.001,0.001,0.001,0.002,0.001C118.97,78.668,122.128,78.293,124.543,76.661z"/>
		<path opacity="0.5" fill="#FFFFFF" enable-background="new    " d="M120.593,57.138l5.417-0.186c0,0,3.329,13.542-4.311,20.684
			C121.699,77.637,125.251,61.353,120.593,57.138z"/>
	</g>
	<g>
		<path fill="#B7A99F" d="M119.822,174.147c43.069,0,77.983,1.145,77.983,2.557s-34.914,2.557-77.983,2.557
			s-74.983-1.145-74.983-2.557S76.753,174.147,119.822,174.147z"/>
		<g>
			<path fill="#E6E6E6" d="M154.018,149.663c0,0,10.566-56.811,33.014-53.679c22.448,3.131,30.36,47.056,30.36,47.056
				S190.426,161.423,154.018,149.663z"/>
			<ellipse fill="#EABB98" cx="186.248" cy="41.633" rx="25.619" ry="20.9"/>
			<path fill="#351F10" d="M209.527,29.989c10.937-10.051,6.209-23.657-9.122-26.11c-12.091-1.935-14.813,8.967-15.388,15.284
				c-4.542,0.654-9.723,2.386-15.625,5.615c0,0,9.439,28.991,26.293,35.732c0,0,23.9-3.372,21.877-20.226
				C217.563,40.285,213.192,35.203,209.527,29.989z"/>
			<path fill="#EABB98" d="M176.809,73.994c0,0-1.348-12.136,9.439-11.461c10.787,0.674,10.112,16.854,10.112,16.854L176.809,73.994
				z"/>
			<polygon fill="#0071BC" points="176.1,68.938 179.585,94.897 194.288,94.784 197.253,75.006 			"/>
			<polygon fill="#EABB98" points="186.247,67.927 141.894,90.556 192.99,71.972 			"/>
			<ellipse fill="#EABB98" cx="183.551" cy="47.364" rx="5.394" ry="7.079"/>
		</g>
		<path fill="#808080" d="M67.232,117.446h31.732c0,0,3.378-74.436-14.832-73.958C58.513,44.162,67.232,117.446,67.232,117.446z"/>
		<polygon fill="#808080" points="75.368,54.275 125.319,86.467 78.401,85.421 		"/>
		<g>
			<path fill="#EABB98" d="M61.422,18.867C63.135,7.453,72.866-0.098,86.857,2.002s23.945,13.055,22.232,24.469
				c-1.713,11.414-14.444,18.965-28.435,16.865C66.663,41.236,59.709,30.281,61.422,18.867z"/>
			<path fill="#CCCC33" d="M70.862,40.511l9.401-8.133l23.605-20.999l7.902-11.767c0,0-40.299-20.251-50.473,11.062
				C53.694,34.076,70.862,40.511,70.862,40.511z"/>
			<circle fill="#EABB98" cx="85.598" cy="26.361" r="7.079"/>
		</g>
		<path fill="#351F10" d="M71.266,114.446c0,0,6.821,33.372,10.192,61.014l21.574-0.674l-11.461-6.405l6.382-53.935H71.266z"/>
	</g>
	<g>
		<path fill="#F9F8F7" d="M152.795,86.818c-1.396-1.535-0.698-4.745,3.07-12.001s1.535-17.584,0.977-18.839
			c-0.47-1.059-5.007-1.423-6.42-1.512v-0.023c0,0-0.077,0.003-0.209,0.011c-0.132-0.007-0.209-0.011-0.209-0.011v0.023
			c-1.413,0.089-5.95,0.453-6.42,1.512c-0.558,1.256-2.791,11.583,0.977,18.839c3.768,7.256,4.465,10.466,3.07,12.001
			c-1.396,1.535-6.608,4.327-1.21,4.327h3.583h0.418h3.583C159.402,91.145,154.19,88.354,152.795,86.818z"/>
		<path fill="#E4B322" d="M146.42,91.145h3.583h0.418h3.583c5.397,0,0.185-2.791-1.21-4.327c-1.314-1.445-0.772-4.375,2.438-10.765
			l-10.61-1.115c3.712,7.17,4.395,10.353,3.007,11.88C146.235,88.354,141.023,91.145,146.42,91.145z"/>
		<path fill="#F0C219" d="M154.933,76.661c0.29-0.587,0.594-1.194,0.931-1.844c2.008-3.867,2.312-8.607,2.073-12.38
			c-2.336,0.197-5.011-0.194-7.725-1.013c-3.268,0.445-5.719-0.066-7.701,0.672c-0.279,3.826-0.021,8.736,2.048,12.721
			c0.293,0.564,0.561,1.096,0.818,1.613c0,0.001,0.001,0.001,0.002,0.001C149.361,78.668,152.519,78.293,154.933,76.661z"/>
		<path opacity="0.5" fill="#FFFFFF" enable-background="new    " d="M150.984,57.138l5.417-0.186c0,0,3.329,13.542-4.311,20.684
			C152.089,77.637,155.642,61.353,150.984,57.138z"/>
	</g>
</g>
</svg>
