<?xml version="1.0" encoding="utf-8"?>
<!-- Generator: Adobe Illustrator 17.0.0, SVG Export Plug-In . SVG Version: 6.00 Build 0)  -->
<!DOCTYPE svg PUBLIC "-//W3C//DTD SVG 1.1//EN" "http://www.w3.org/Graphics/SVG/1.1/DTD/svg11.dtd">
<svg version="1.1" id="Layer_1" xmlns="http://www.w3.org/2000/svg" xmlns:xlink="http://www.w3.org/1999/xlink" x="0px" y="0px"
	 width="155.966px" height="184.509px" viewBox="331.721 183.417 155.966 184.509"
	 enable-background="new 331.721 183.417 155.966 184.509" xml:space="preserve">
<g>
	<ellipse fill="#B7A99F" cx="409.704" cy="365.369" rx="77.983" ry="2.557"/>
	<g>
		<path fill="#949BFF" d="M395.892,339.946c0,0,18.285-59.045,34.853-59.933c16.568-0.889,12.415,42.409,12.415,42.409
			S421.562,345.225,395.892,339.946z"/>
		<ellipse fill="#EABB98" cx="425.131" cy="225.298" rx="25.619" ry="20.9"/>
		<path fill="#351F10" d="M448.409,213.653c10.937-10.051,6.209-23.657-9.122-26.11c-12.091-1.935-14.814,8.967-15.388,15.284
			c-4.543,0.654-9.723,2.386-15.625,5.615c0,0,9.439,28.991,26.293,35.732c0,0,20.9-3.372,18.877-20.226
			C453.445,223.949,452.075,218.868,448.409,213.653z"/>
		<path fill="#EABB98" d="M416.691,256.659c0,0-1.348-12.136,9.439-11.461c10.787,0.674,5.193,16.033,5.193,16.033L416.691,256.659z
			"/>
		<polygon fill="#00A99D" points="415.982,251.603 419.468,277.562 434.171,277.448 434.171,247.742 		"/>
		<polygon fill="#EABB98" points="426.129,250.592 391.746,287.672 432.872,254.636 		"/>
		<ellipse fill="#EABB98" cx="422.433" cy="231.028" rx="5.394" ry="7.079"/>
	</g>
	<path fill="#351F10" d="M357.114,306.11h31.732c0,0,3.378-74.437-14.832-73.958C348.395,232.827,357.114,306.11,357.114,306.11z"/>
	<polygon fill="#351F10" points="365.25,243.94 420.344,278.523 368.283,261.086 	"/>
	<g>
		
			<ellipse transform="matrix(0.4624 -0.8867 0.8867 0.4624 14.2854 449.9271)" fill="#EABB98" cx="378.173" cy="213.183" rx="20.901" ry="25.62"/>
		<path fill="#CCCC33" d="M360.148,225.839l11.537-4.628l29.157-12.167l11.304-8.552c0,0-34.344-33.248-54.161-6.955
			C343.176,213.187,360.148,225.839,360.148,225.839z"/>
		<circle fill="#EABB98" cx="378.689" cy="217.261" r="7.079"/>
	</g>
	<path fill="#351F10" d="M361.148,303.11c0,0,6.821,33.372,10.192,61.014l21.574-0.674l-11.461-6.405l6.382-53.935H361.148z"/>
</g>
</svg>
