<?xml version="1.0" encoding="utf-8"?>
<!-- Generator: Adobe Illustrator 17.0.0, SVG Export Plug-In . SVG Version: 6.00 Build 0)  -->
<!DOCTYPE svg PUBLIC "-//W3C//DTD SVG 1.1//EN" "http://www.w3.org/Graphics/SVG/1.1/DTD/svg11.dtd">
<svg version="1.1" id="Layer_1" xmlns="http://www.w3.org/2000/svg" xmlns:xlink="http://www.w3.org/1999/xlink" x="0px" y="0px"
	 width="172.845px" height="186.09px" viewBox="0 0 172.845 186.09" enable-background="new 0 0 172.845 186.09"
	 xml:space="preserve">
<g>
	<g>
		<path fill="#F9F8F7" d="M77.565,89.507c-1.396-1.535-0.698-4.745,3.07-12.001s1.535-17.584,0.977-18.839
			c-0.47-1.059-5.007-1.423-6.42-1.512v-0.023c0,0-0.077,0.004-0.209,0.011c-0.132-0.007-0.209-0.011-0.209-0.011v0.023
			c-1.413,0.089-5.95,0.453-6.42,1.512c-0.558,1.256-2.791,11.583,0.977,18.839s4.465,10.466,3.07,12.001
			c-1.396,1.535-6.608,4.327-1.21,4.327h3.583h0.418h3.583C84.173,93.834,78.96,91.043,77.565,89.507z"/>
		<path fill="#E4B322" d="M71.19,93.834h3.583h0.418h3.583c5.397,0,0.185-2.791-1.21-4.327c-1.314-1.445-0.772-4.375,2.438-10.765
			l-10.61-1.115c3.712,7.17,4.395,10.353,3.007,11.88C71.005,91.043,65.793,93.834,71.19,93.834z"/>
		<path fill="#F0C219" d="M79.704,79.35c0.29-0.587,0.594-1.194,0.931-1.844c2.008-3.867,2.376-6.252,2.137-10.025
			c-2.336,0.197-5.076,2.083-7.79,1.264c-2.424-0.732-5.811-2.275-7.793-1.536c-0.279,3.826,0.072,6.312,2.141,10.297
			c0.293,0.564,0.561,1.096,0.818,1.613c0,0.001,0.001,0.001,0.002,0.001C74.131,81.357,77.289,80.982,79.704,79.35z"/>
		<path opacity="0.5" fill="#FFFFFF" enable-background="new    " d="M75.754,59.827l5.417-0.186c0,0,3.329,13.542-4.311,20.684
			C76.86,80.326,80.412,64.042,75.754,59.827z"/>
	</g>
	<g>
		<path fill="#B7A99F" d="M74.983,176.836c43.069,0,77.983,1.145,77.983,2.557s-34.914,2.557-77.983,2.557S0,180.805,0,179.393
			S31.914,176.836,74.983,176.836z"/>
		<g>
			<path fill="#E6E6E6" d="M109.179,152.352c0,0,10.566-56.811,33.014-53.679c22.448,3.131,30.36,47.056,30.36,47.056
				S145.587,164.112,109.179,152.352z"/>
			<ellipse fill="#EABB98" cx="141.409" cy="44.322" rx="25.619" ry="20.9"/>
			<path fill="#996633" d="M164.688,32.678c10.937-10.051,6.209-23.657-9.122-26.11c-12.091-1.935-14.813,8.967-15.388,15.284
				c-4.542,0.654-9.723,2.386-15.625,5.615c0,0,9.439,28.991,26.293,35.732c0,0,23.9-3.372,21.877-20.226
				C172.724,42.974,168.353,37.892,164.688,32.678z"/>
			<path fill="#EABB98" d="M131.97,76.683c0,0-1.348-12.136,9.439-11.461c10.787,0.674,10.112,16.854,10.112,16.854L131.97,76.683z"
				/>
			<polygon fill="#0071BC" points="131.261,71.627 134.746,97.586 149.449,97.473 152.414,77.695 			"/>
			<polygon fill="#EABB98" points="141.408,70.616 97.055,93.245 148.151,74.661 			"/>
			<ellipse fill="#EABB98" cx="138.712" cy="50.053" rx="5.394" ry="7.079"/>
		</g>
		<path fill="#808080" d="M22.393,120.135h31.732c0,0,3.378-74.436-14.832-73.958C13.674,46.851,22.393,120.135,22.393,120.135z"/>
		<polygon fill="#808080" points="30.529,56.964 80.48,89.156 33.562,88.11 		"/>
		<g>
			<path fill="#EABB98" d="M17.782,21.355C19.495,9.941,29.226,2.39,43.217,4.49s23.945,13.055,22.232,24.469
				S51.005,47.924,37.014,45.824C23.023,43.724,16.069,32.769,17.782,21.355z"/>
			<circle fill="#EABB98" cx="40.759" cy="29.05" r="7.079"/>
		</g>
		<path fill="#351F10" d="M26.427,117.135c0,0,6.821,33.372,10.192,61.014l21.574-0.674l-11.461-6.405l6.382-53.935
			C53.114,117.135,26.427,117.135,26.427,117.135z"/>
	</g>
	<g>
		<path fill="#F9F8F7" d="M107.956,89.507c-1.396-1.535-0.698-4.745,3.07-12.001s1.535-17.584,0.977-18.839
			c-0.47-1.059-5.007-1.423-6.42-1.512v-0.023c0,0-0.077,0.003-0.209,0.011c-0.132-0.007-0.209-0.011-0.209-0.011v0.023
			c-1.413,0.089-5.95,0.453-6.42,1.512c-0.558,1.256-2.791,11.583,0.977,18.839s4.465,10.466,3.07,12.001
			c-1.396,1.535-6.608,4.327-1.21,4.327h3.583h0.418h3.583C114.563,93.834,109.351,91.043,107.956,89.507z"/>
		<path fill="#E4B322" d="M101.581,93.834h3.583h0.418h3.583c5.397,0,0.185-2.791-1.21-4.327c-1.314-1.445-0.772-4.375,2.438-10.765
			l-10.61-1.115c3.712,7.17,4.395,10.353,3.007,11.88C101.396,91.043,96.184,93.834,101.581,93.834z"/>
		<path fill="#F0C219" d="M110.094,79.35c0.29-0.587,0.594-1.194,0.931-1.844c2.008-3.867,2.312-8.607,2.073-12.38
			c-2.336,0.197-5.011-0.194-7.725-1.013c-3.268,0.445-5.719-0.066-7.701,0.672c-0.279,3.826-0.021,8.736,2.048,12.721
			c0.293,0.564,0.561,1.096,0.818,1.613c0,0.001,0.001,0.001,0.002,0.001C104.522,81.357,107.68,80.982,110.094,79.35z"/>
		<path opacity="0.5" fill="#FFFFFF" enable-background="new    " d="M106.145,59.827l5.417-0.186c0,0,3.329,13.542-4.311,20.684
			C107.25,80.326,110.803,64.042,106.145,59.827z"/>
	</g>
</g>
<path fill="none" d="M155.583,42.234c3.162,3.039,5.187,7.869,8.5,10.5"/>
</svg>
