<?xml version="1.0" encoding="utf-8"?>
<!-- Generator: Adobe Illustrator 17.0.0, SVG Export Plug-In . SVG Version: 6.00 Build 0)  -->
<!DOCTYPE svg PUBLIC "-//W3C//DTD SVG 1.1//EN" "http://www.w3.org/Graphics/SVG/1.1/DTD/svg11.dtd">
<svg version="1.1" id="Layer_1" xmlns="http://www.w3.org/2000/svg" xmlns:xlink="http://www.w3.org/1999/xlink" x="0px" y="0px"
	 width="164.651px" height="186.09px" viewBox="385.367 158.08 164.651 186.09"
	 enable-background="new 385.367 158.08 164.651 186.09" xml:space="preserve">
<g>
	<ellipse fill="#B7A99F" cx="463.35" cy="341.613" rx="77.983" ry="2.557"/>
	<g>
		<path d="M491.255,332.316c0,0,15.758-68.247,29.949-69.816c14.192-1.57,11.223,51.613,11.223,51.613
			S512.94,335.979,491.255,332.316z"/>
		<ellipse fill="#EABB98" cx="520.776" cy="206.542" rx="25.619" ry="20.9"/>
		<path fill="#351F10" d="M544.055,194.898c10.937-10.051,6.209-23.657-9.122-26.11c-12.091-1.935-14.814,8.967-15.388,15.284
			c-4.543,0.654-9.723,2.386-15.625,5.615c0,0,9.439,28.991,26.293,35.732c0,0,20.9-3.372,18.877-20.226
			C549.091,205.194,547.721,200.113,544.055,194.898z"/>
		<path fill="#EABB98" d="M511.337,238.904c0,0-1.348-12.136,9.439-11.461c10.787,0.674,10.112,16.854,10.112,16.854
			L511.337,238.904z"/>
		<polygon fill="#39B54A" points="510.628,233.847 514.114,259.806 528.817,259.693 531.781,239.915 		"/>
		<polygon fill="#EABB98" points="520.775,232.836 473,259.806 527.518,236.881 		"/>
		<ellipse fill="#EABB98" cx="518.079" cy="212.273" rx="5.394" ry="7.079"/>
	</g>
	<path fill="#C7B299" d="M410.76,282.355h31.732c0,0,3.378-74.436-14.832-73.958C402.041,209.071,410.76,282.355,410.76,282.355z"/>
	<polygon fill="#C7B299" points="418.896,219.184 473,259.806 421.929,250.33 	"/>
	<g>
		
			<ellipse transform="matrix(0.1484 -0.9889 0.9889 0.1484 178.3875 582.2907)" fill="#EABB98" cx="427.29" cy="187.568" rx="20.899" ry="25.618"/>
		<path fill="#CCCC33" d="M414.39,205.42l9.401-8.133l23.605-20.999l7.902-11.767c0,0-43.299-20.251-53.473,11.062
			C394.222,198.985,414.39,205.42,414.39,205.42z"/>
		<circle fill="#EABB98" cx="429.126" cy="191.27" r="7.079"/>
	</g>
	<path fill="#1B1464" d="M414.794,279.355c0,0,6.821,33.372,10.192,61.014l21.574-0.674l-11.461-6.405l6.382-53.935H414.794z"/>
</g>
</svg>
