<?xml version="1.0" encoding="utf-8"?>
<!-- Generator: Adobe Illustrator 17.0.0, SVG Export Plug-In . SVG Version: 6.00 Build 0)  -->
<!DOCTYPE svg PUBLIC "-//W3C//DTD SVG 1.1//EN" "http://www.w3.org/Graphics/SVG/1.1/DTD/svg11.dtd">
<svg version="1.1" id="Layer_1" xmlns="http://www.w3.org/2000/svg" xmlns:xlink="http://www.w3.org/1999/xlink" x="0px" y="0px"
	 width="162.651px" height="178.609px" viewBox="0 0 162.651 178.609" enable-background="new 0 0 162.651 178.609"
	 xml:space="preserve">
<ellipse fill="#B7A99F" cx="383.789" cy="336.918" rx="77.983" ry="2.557"/>
<path fill="#1B1464" d="M416.299,327.641c0,0-1.848-72.074,20.212-70.545c22.06,1.528,13.121,67.211,13.121,67.211
	S451.496,337.552,416.299,327.641z"/>
<ellipse fill="#EABB98" cx="439.216" cy="198.848" rx="25.619" ry="20.9"/>
<path fill="#351F10" d="M462.494,187.203c10.937-10.051,6.209-23.657-9.122-26.11c-12.091-1.935-14.813,8.967-15.388,15.284
	c-4.542,0.654-9.723,2.386-15.625,5.615c0,0,9.439,28.991,26.293,35.732c0,0,20.9-3.372,18.877-20.226
	C467.53,197.499,466.16,192.418,462.494,187.203z"/>
<path fill="#EABB98" d="M429.776,231.209c0,0-1.348-12.136,9.439-11.461c10.787,0.674,6.193,15.774,6.193,15.774L429.776,231.209z"
	/>
<polygon fill="#CCCCCC" points="429.067,228.128 432.553,254.086 447.256,253.973 448.235,228.161 "/>
<polygon fill="#EABB98" points="439.214,225.142 394.429,257.072 445.957,229.186 "/>
<ellipse fill="#EABB98" cx="436.518" cy="204.578" rx="5.394" ry="7.079"/>
<g>
	<path fill="#8C6239" d="M323.199,290.66h36.732c0,0,3.378-59.437-14.832-58.958C319.48,232.376,323.199,290.66,323.199,290.66z"/>
	<path fill="#665E5A" d="M342.402,229.68c-4.044,0-11.46,4.719-11.46,4.719l28.99,41.429l-0.674-41.429L342.402,229.68z"/>
	<g>
		
			<ellipse transform="matrix(-0.9889 -0.1484 0.1484 -0.9889 654.3354 470.5901)" fill="#EABB98" cx="344.724" cy="210.883" rx="25.617" ry="20.898"/>
		<path fill="#CCCC33" d="M331.829,228.725l9.401-8.133l23.605-20.999l7.902-11.767c0,0-43.299-20.251-53.473,11.062
			C311.662,222.29,331.829,228.725,331.829,228.725z"/>
		<circle fill="#EABB98" cx="346.565" cy="214.576" r="7.079"/>
	</g>
	<polygon fill="#351F10" points="388.429,334.072 377.429,322.072 384.429,282.072 351.329,289.229 351.429,288.072 323.199,290.66 
		334.429,318.072 310.429,314.072 310.429,335.072 319.429,326.072 347.429,334.072 350.052,303.913 371.429,297.072 
		363.429,334.072 	"/>
</g>
<polygon fill="#351F10" points="332.429,252.072 367.429,273.072 394.429,257.072 370.429,265.072 334.429,237.072 "/>
</svg>
