<?xml version="1.0" encoding="utf-8"?>
<!-- Generator: Adobe Illustrator 17.0.0, SVG Export Plug-In . SVG Version: 6.00 Build 0)  -->
<!DOCTYPE svg PUBLIC "-//W3C//DTD SVG 1.1//EN" "http://www.w3.org/Graphics/SVG/1.1/DTD/svg11.dtd">
<svg version="1.1" id="Layer_1" xmlns="http://www.w3.org/2000/svg" xmlns:xlink="http://www.w3.org/1999/xlink" x="0px" y="0px"
	 width="162.651px" height="178.609px" viewBox="0 0 162.651 178.609" enable-background="new 0 0 162.651 178.609"
	 xml:space="preserve">
<ellipse fill="#B7A99F" cx="77.983" cy="176.052" rx="77.983" ry="2.557"/>
<path fill="#1B1464" d="M110.493,166.775c0,0-1.848-72.074,20.212-70.545c22.06,1.528,13.121,67.211,13.121,67.211
	S145.69,176.686,110.493,166.775z"/>
<ellipse fill="#EABB98" cx="133.41" cy="37.982" rx="25.619" ry="20.9"/>
<path fill="#996633" d="M156.688,26.337c10.937-10.051,6.209-23.657-9.122-26.11c-12.091-1.935-14.813,8.967-15.388,15.284
	c-4.542,0.654-9.723,2.386-15.625,5.615c0,0,9.439,28.991,26.293,35.732c0,0,20.9-3.372,18.877-20.226
	C161.724,36.633,160.354,31.552,156.688,26.337z"/>
<path fill="#EABB98" d="M123.97,70.343c0,0-1.348-12.136,9.439-11.461c10.787,0.674,6.193,15.774,6.193,15.774L123.97,70.343z"/>
<polygon fill="#CCCCCC" points="123.261,67.262 126.747,93.22 141.45,93.107 142.429,67.295 "/>
<polygon fill="#EABB98" points="133.408,64.276 88.623,96.206 140.151,68.32 "/>
<ellipse fill="#EABB98" cx="130.712" cy="43.712" rx="5.394" ry="7.079"/>
<g>
	<path fill="#8C6239" d="M17.393,129.794h36.732c0,0,3.378-59.437-14.832-58.958C13.674,71.51,17.393,129.794,17.393,129.794z"/>
	<path fill="#665E5A" d="M36.596,68.814c-4.044,0-11.46,4.719-11.46,4.719l28.99,41.429l-0.674-41.429L36.596,68.814z"/>
	<g>
		
			<ellipse transform="matrix(0.9889 0.1484 -0.1484 0.9889 7.8538 -5.2241)" fill="#EABB98" cx="38.934" cy="50.016" rx="25.615" ry="20.896"/>
		<circle fill="#EABB98" cx="40.759" cy="53.71" r="7.079"/>
	</g>
	<polygon fill="#351F10" points="82.623,173.206 71.623,161.206 78.623,121.206 45.523,128.363 45.623,127.206 17.393,129.794 
		28.623,157.206 4.623,153.206 4.623,174.206 13.623,165.206 41.623,173.206 44.246,143.047 65.623,136.206 57.623,173.206 	"/>
</g>
<polygon fill="#351F10" points="26.623,91.206 61.623,112.206 88.623,96.206 64.623,104.206 28.623,76.206 "/>
</svg>
