<?xml version="1.0" encoding="utf-8"?>
<!-- Generator: Adobe Illustrator 17.0.0, SVG Export Plug-In . SVG Version: 6.00 Build 0)  -->
<!DOCTYPE svg PUBLIC "-//W3C//DTD SVG 1.1//EN" "http://www.w3.org/Graphics/SVG/1.1/DTD/svg11.dtd">
<svg version="1.1" id="Layer_1" xmlns="http://www.w3.org/2000/svg" xmlns:xlink="http://www.w3.org/1999/xlink" x="0px" y="0px"
	 width="179.153px" height="185.942px" viewBox="0 0 179.153 185.942" enable-background="new 0 0 179.153 185.942"
	 xml:space="preserve">
<g>
	<ellipse fill="#B7A99F" cx="81.899" cy="183.385" rx="77.983" ry="2.557"/>
	<g>
		<path fill="#351F10" d="M99.837,86.097l13.497,9.61l-12.909-33.448l-39.4,1.29L48.334,87.707l12.525-2.428l0.578,35.807
			l7.23,51.336l-12.309,9.127l18.667-1v-9.655c0,0,6.03-46.813,6.03-45.576c0,1.236,0,54.93,0,54.93l21.018-0.237l-12.382-7.462
			l10.904-50.744L99.837,86.097z"/>
		<polygon fill="#E2D4BF" points="67.364,58.763 82.569,105.089 92.093,57.939 		"/>
		<g>
			<path fill="#EABB98" d="M112.394,33.123c0.459-5.976-1.555-11.215-4.494-11.699c-1.185-0.195-2.336,0.42-3.323,1.603
				c-4.23-9.427-14.064-15.628-25.317-14.869c-12.074,0.819-22.022,9.4-24.975,20.449c-1.52-1.805-3.312-2.504-4.889-1.62
				c-2.765,1.547-3.825,7.355-2.364,12.972c1.46,5.619,4.885,8.92,7.65,7.371c0.425-0.236,0.803-0.586,1.144-1.007
				c4.352,9.14,14.039,15.101,25.083,14.354c11.19-0.757,20.549-8.176,24.216-18.051c0.352,0.22,0.723,0.373,1.111,0.437
				C109.179,43.546,111.934,39.096,112.394,33.123z"/>
			<g>
				
					<ellipse transform="matrix(-0.9667 -0.2558 0.2558 -0.9667 131.9639 81.3719)" fill="#351F10" cx="71.274" cy="32.104" rx="2.138" ry="2.318"/>
				
					<ellipse transform="matrix(-0.9668 -0.2557 0.2557 -0.9668 168.1215 85.9365)" fill="#351F10" cx="89.647" cy="32.04" rx="2.138" ry="2.317"/>
			</g>
		</g>
		<path fill="#665E5A" d="M68.217,58.551l-10.285,5.243c0,0,8.55,32.627,24.212,40.871L68.217,58.551z"/>
		<path fill="#665E5A" d="M89.408,55.068l-6.838,50.021c0,0,15.734-23.458,19.855-42.83L89.408,55.068z"/>
		<polygon fill="#FFFFFF" points="79.851,57.328 65.998,50.544 67.449,68.187 80.06,60.68 93.214,68.205 93,50.637 		"/>
	</g>
	<polygon fill="#FFFFFF" points="109.297,67.369 98.393,91.183 109.889,99.933 123.95,83.788 	"/>
	<g>
		<path fill="#FFF7E9" d="M8.334,53.708c0,0,97.64,14.245,100.763,49.532c1.333,15.055-11.763,36.468-37.763,12.468
			c-2.859-2.639-4.546-2.614-8-1c-18.146,8.478-29.239,43.309-28,43C35.334,157.708-20.666,117.708,8.334,53.708z"/>
		
			<ellipse transform="matrix(-0.8457 -0.5336 0.5336 -0.8457 217.876 162.3792)" fill="#EABB98" cx="132.411" cy="49.695" rx="25.617" ry="20.898"/>
		<path fill="#663300" d="M158.351,52.264c14.613-2.665,17.875-16.695,6.217-26.95c-9.193-8.087-17.313-0.32-21.17,4.716
			c-4.191-1.871-9.497-3.17-16.211-3.588c0,0-7.486,29.555,3.171,44.25c0,0,19.475,8.301,26.757-7.033
			C157.116,63.659,158.668,58.63,158.351,52.264z"/>
		<path fill="#FFFFFF" d="M143.696,43.235c1.375-0.012,5.942-0.572,5.11-2.891c-0.653-1.821-5.794-1.118-6.311,0.106
			c0.929-1.42,2.508-5.019-0.15-5.143c-1.87-0.087-3.626,4.091-3.452,5.774c0.02-2.229-3.998-4.52-5.367-3.061
			c-2.381,2.545,2.002,5.467,4.401,5.555c-2.062,0.649-5.294,1.836-4.353,4.131c0.093,0.224,1.805,1.321,2.091,1.341
			c0.738,0.054,1.775-0.489,2.489-1.16c-0.676,1.431-1.031,3.34,0.261,3.964c2.632,1.269,4.685-3.928,4.457-5.582
			c0.51,1.859,2.853,3.129,4.17,1.788C149.295,45.765,146.083,43.144,143.696,43.235z"/>
		<path opacity="0.7" fill="#F7F2E8" enable-background="new    " d="M158.351,52.264l-14.655-9.029l-15.657,69.039l51.064,7.506
			C179.103,119.78,181.198,67.259,158.351,52.264z"/>
		<path fill="#EABB98" d="M107.199,72.024c0,0,5.335-10.983,14.099-4.657c8.763,6.325-0.441,19.65-0.441,19.65L107.199,72.024z"/>
		<polygon fill="#EABB98" points="118.418,71.928 67.334,63.708 121.962,78.946 		"/>
		
			<ellipse transform="matrix(-0.8457 -0.5336 0.5336 -0.8457 206.1935 165.8225)" fill="#EABB98" cx="127.067" cy="53.105" rx="5.394" ry="7.079"/>
		<polygon fill="#351F10" points="111.334,107.708 98.393,91.183 113.334,95.708 		"/>
	</g>
	<polygon fill="#351F10" points="58.334,116.708 64.334,96.708 69.334,116.708 	"/>
</g>
</svg>
