<?xml version="1.0" encoding="utf-8"?>
<!-- Generator: Adobe Illustrator 17.0.0, SVG Export Plug-In . SVG Version: 6.00 Build 0)  -->
<!DOCTYPE svg PUBLIC "-//W3C//DTD SVG 1.1//EN" "http://www.w3.org/Graphics/SVG/1.1/DTD/svg11.dtd">
<svg version="1.1" id="Layer_1" xmlns="http://www.w3.org/2000/svg" xmlns:xlink="http://www.w3.org/1999/xlink" x="0px" y="0px"
	 width="960px" height="560px" viewBox="0 0 960 560" enable-background="new 0 0 960 560" xml:space="preserve">
<g>
	<ellipse fill="#B7A99F" cx="461.278" cy="357.91" rx="77.983" ry="2.557"/>
	<g>
		<path fill="#351F10" d="M479.216,260.622l13.497,9.61l-12.909-33.448l-39.4,1.29l-12.691,24.158l12.525-2.428l0.578,35.807
			l7.23,51.336l-12.309,9.127l18.667-1v-9.655c0,0,6.03-46.813,6.03-45.576c0,1.236,0,54.93,0,54.93l21.018-0.237l-12.382-7.462
			l10.904-50.744L479.216,260.622z"/>
		<polygon fill="#E2D4BF" points="446.743,233.288 461.948,279.614 471.472,232.464 		"/>
		<g>
			<path fill="#EABB98" d="M491.773,213.213c0.459-4.072-1.555-7.642-4.494-7.972c-1.185-0.133-2.336,0.286-3.323,1.092
				c-4.23-6.424-14.064-10.649-25.317-10.132c-12.074,0.558-22.022,6.405-24.975,13.934c-1.52-1.23-3.312-1.706-4.889-1.104
				c-2.765,1.054-3.825,5.012-2.364,8.839c1.46,3.829,4.885,6.078,7.65,5.023c0.425-0.161,0.803-0.399,1.144-0.686
				c4.352,6.228,14.039,10.29,25.083,9.781c11.19-0.516,20.549-5.571,24.216-12.3c0.352,0.15,0.723,0.254,1.111,0.298
				C488.558,220.315,491.313,217.283,491.773,213.213z"/>
			<g>
				
					<ellipse transform="matrix(0.9667 0.2558 -0.2558 0.9667 68.8605 -108.2674)" fill="#351F10" cx="450.685" cy="210.614" rx="2.138" ry="2.318"/>
				
					<ellipse transform="matrix(0.9668 0.2557 -0.2557 0.9668 69.4179 -112.9088)" fill="#351F10" cx="469.005" cy="210.557" rx="2.138" ry="2.317"/>
			</g>
			<path fill="#CCCC33" d="M432.953,213.384c0,0,5.786-13.818,24.207-15.766c18.421-1.948,29.767,16.401,29.767,16.401
				s4.5-27.178-27.065-39.494C459.861,174.525,422.789,188.952,432.953,213.384z"/>
		</g>
		<path fill="#665E5A" d="M447.596,233.076l-10.285,5.243c0,0,8.55,32.627,24.212,40.871L447.596,233.076z"/>
		<path fill="#665E5A" d="M468.787,229.593l-6.838,50.021c0,0,15.734-23.458,19.855-42.83L468.787,229.593z"/>
		<polygon fill="#FFFFFF" points="459.23,231.853 445.377,225.069 446.828,242.712 459.439,235.205 472.593,242.73 472.379,225.162 
					"/>
	</g>
	<polygon fill="#FFFFFF" points="488.676,241.894 477.772,265.708 489.268,274.458 503.329,258.313 	"/>
	<g>
		<path fill="#FFF7E9" d="M387.713,228.233c0,0,97.64,14.245,100.763,49.532c1.333,15.055-11.763,36.468-37.763,12.468
			c-2.859-2.639-4.546-2.614-8-1c-18.146,8.478-29.239,43.309-28,43C414.713,332.233,358.713,292.233,387.713,228.233z"/>
		
			<ellipse transform="matrix(0.8457 0.5336 -0.5336 0.8457 198.5933 -238.5204)" fill="#EABB98" cx="511.828" cy="224.216" rx="25.619" ry="20.9"/>
		<path fill="#351F10" d="M537.73,226.789c14.613-2.665,17.875-16.695,6.217-26.95c-9.193-8.087-17.313-0.32-21.17,4.716
			c-4.191-1.871-9.497-3.17-16.211-3.588c0,0-7.486,29.555,3.171,44.25c0,0,19.475,8.301,26.757-7.033
			C536.495,238.184,538.047,233.155,537.73,226.789z"/>
		<path fill="#FFFFFF" d="M523.075,217.76c1.375-0.012,5.942-0.572,5.11-2.891c-0.653-1.821-5.794-1.118-6.311,0.106
			c0.929-1.42,2.508-5.019-0.15-5.143c-1.87-0.087-3.626,4.091-3.452,5.774c0.02-2.229-3.998-4.52-5.367-3.061
			c-2.381,2.545,2.002,5.467,4.401,5.555c-2.062,0.649-5.294,1.836-4.353,4.131c0.093,0.224,1.805,1.321,2.091,1.341
			c0.738,0.054,1.775-0.489,2.489-1.16c-0.676,1.431-1.031,3.34,0.261,3.964c2.632,1.269,4.685-3.928,4.457-5.582
			c0.51,1.859,2.853,3.129,4.17,1.788C528.674,220.29,525.462,217.669,523.075,217.76z"/>
		<path opacity="0.7" fill="#F7F2E8" d="M537.73,226.789l-14.655-9.029l-15.657,69.039l51.064,7.506
			C558.482,294.305,560.577,241.784,537.73,226.789z"/>
		<path fill="#EABB98" d="M486.578,246.549c0,0,5.335-10.983,14.099-4.657c8.763,6.325-0.441,19.65-0.441,19.65L486.578,246.549z"/>
		<polygon fill="#EABB98" points="497.797,246.453 446.713,238.233 501.341,253.471 		"/>
		
			<ellipse transform="matrix(0.8457 0.5336 -0.5336 0.8457 199.5832 -235.143)" fill="#EABB98" cx="506.489" cy="227.623" rx="5.394" ry="7.079"/>
		<polygon fill="#351F10" points="490.713,282.233 477.772,265.708 492.713,270.233 		"/>
	</g>
	<polygon fill="#351F10" points="437.713,291.233 443.713,271.233 448.713,291.233 	"/>
</g>
</svg>
