<?xml version="1.0" encoding="utf-8"?>
<!-- Generator: Adobe Illustrator 17.0.0, SVG Export Plug-In . SVG Version: 6.00 Build 0)  -->
<!DOCTYPE svg PUBLIC "-//W3C//DTD SVG 1.1//EN" "http://www.w3.org/Graphics/SVG/1.1/DTD/svg11.dtd">
<svg version="1.1" id="Layer_1" xmlns="http://www.w3.org/2000/svg" xmlns:xlink="http://www.w3.org/1999/xlink" x="0px" y="0px"
	 width="155.966px" height="184.509px" viewBox="0 0 155.966 184.509" enable-background="new 0 0 155.966 184.509"
	 xml:space="preserve">
<g>
	<ellipse fill="#B7A99F" cx="77.983" cy="181.952" rx="77.983" ry="2.557"/>
	<g>
		<path fill="#949BFF" d="M64.171,156.529c0,0,18.285-59.045,34.853-59.933c16.568-0.889,12.415,42.409,12.415,42.409
			S89.841,161.808,64.171,156.529z"/>
		<ellipse fill="#EABB98" cx="93.41" cy="41.881" rx="25.619" ry="20.9"/>
		<path fill="#996633" d="M116.688,30.236c10.937-10.051,6.209-23.657-9.122-26.11C95.475,2.191,92.752,13.093,92.178,19.41
			c-4.543,0.654-9.723,2.386-15.625,5.615c0,0,9.439,28.991,26.293,35.732c0,0,20.9-3.372,18.877-20.226
			C121.724,40.532,120.354,35.451,116.688,30.236z"/>
		<path fill="#EABB98" d="M84.97,73.242c0,0-1.348-12.136,9.439-11.461c10.787,0.674,5.193,16.033,5.193,16.033L84.97,73.242z"/>
		<polygon fill="#00A99D" points="84.261,68.186 87.747,94.145 102.45,94.031 102.45,64.325 		"/>
		<polygon fill="#EABB98" points="94.408,67.175 60.025,104.255 101.151,71.219 		"/>
		<ellipse fill="#EABB98" cx="90.712" cy="47.611" rx="5.394" ry="7.079"/>
	</g>
	<path fill="#351F10" d="M25.393,122.693h31.732c0,0,3.378-74.437-14.832-73.958C16.674,49.41,25.393,122.693,25.393,122.693z"/>
	<polygon fill="#351F10" points="33.529,60.523 88.623,95.106 36.562,77.669 	"/>
	<g>
		
			<ellipse transform="matrix(-0.4624 0.8867 -0.8867 -0.4624 94.3293 2.3234)" fill="#EABB98" cx="46.46" cy="29.759" rx="20.903" ry="25.622"/>
		<circle fill="#EABB98" cx="46.968" cy="33.844" r="7.079"/>
	</g>
	<path fill="#351F10" d="M29.427,119.693c0,0,6.821,33.372,10.192,61.014l21.574-0.674l-11.461-6.405l6.382-53.935
		C56.114,119.693,29.427,119.693,29.427,119.693z"/>
</g>
</svg>
